PathFileType	4	(X/Y/Z)	Patient4_TMGait_0pt2_03_left_13.trc.trc
DataRate	CameraRate	NumFrames	NumMarkers	Units	OrigDataRate	OrigDataStartFrame	OrigNumFrames
47.457627118644	47.457627118644	4	33	mm	47.457627118644	1	       141
Frame#	Time	Sacral			L.Shoulder			Chest			R.Shoulder			Neck			R.ASIS			L.ASIS			R.Thigh.Superior			R.Thigh.Lateral			R.Thigh.Inferior			R.Patella			L.Thigh.Superior			L.Thigh.Lateral			L.Thigh.Inferior			L.Patella			L.Shank.Superior			L.Shank.Lateral			L.Shank.Inferior			R.Shank.Superior			R.Shank.Lateral			R.Shank.Inferior			R.Heel			R.Midfoot.Superior			R.Midfoot.Lateral			R.Toe			L.Heel			L.Midfoot.Lateral			L.Midfoot.Superior			L.Toe			L.Elbow			L.Wrist			R.Elbow			R.Wrist			
		X1	Y1	Z1	X2	Y2	Z2	X3	Y3	Z3	X4	Y4	Z4	X5	Y5	Z5	X6	Y6	Z6	X7	Y7	Z7	X8	Y8	Z8	X9	Y9	Z9	X10	Y10	Z10	X11	Y11	Z11	X12	Y12	Z12	X13	Y13	Z13	X14	Y14	Z14	X15	Y15	Z15	X16	Y16	Z16	X17	Y17	Z17	X18	Y18	Z18	X19	Y19	Z19	X20	Y20	Z20	X21	Y21	Z21	X22	Y22	Z22	X23	Y23	Z23	X24	Y24	Z24	X25	Y25	Z25	X26	Y26	Z26	X27	Y27	Z27	X28	Y28	Z28	X29	Y29	Z29	X30	Y30	Z30	X31	Y31	Z31	X32	Y32	Z32	X33	Y33	Z33	

1	26.750000000000	859.748755203023	1001.973425174881	579.031798851409	1063.589531715361	1419.456192922921	398.937826037888	1149.353924378817	1355.179919600047	570.227704788330	1055.412735678828	1439.589720673881	732.970082670441	1032.543884672750	1489.264682642373	552.491821949452	1081.951602484897	935.501028653733	708.608632775958	1085.293613691482	960.427587713920	433.288724632489	1136.838579393695	740.202469379469	669.923413470561	1060.714093277855	622.774211476867	720.366667152933	1143.830907083305	578.655872324325	640.400387837485	1150.070681778975	485.817084331939	643.721140863423	1152.407209332459	763.665504090802	457.280798813027	1091.433481245178	634.907375124835	368.636158377904	1192.879181935601	569.636001535104	437.194017540184	1196.644548493687	479.738267861560	425.477445508153	1125.371658147352	419.707443243763	410.313385595405	986.085814978932	390.625674435862	346.938906248355	958.880260590558	260.721306488907	394.927602799937	1111.636874296196	397.254237713141	643.984044066729	1030.725961378258	297.040800483376	701.318265925741	1063.326725833421	202.566685923123	631.871798501537	916.435035775131	44.125444917106	596.450302524596	1089.617122388533	97.346044385927	632.058562988789	1000.687094949858	37.626519648671	670.364431788086	1208.949264906825	44.294040689814	657.120946604132	759.971984600411	204.712945458687	412.563999082200	823.487409222341	162.826259485501	334.542373770452	927.004389406314	165.721124100538	364.843523792468	1004.312967446641	53.401419523154	335.158325365747	1053.526603807295	1057.484344574257	302.994994085246	1121.763471527792	806.310301074881	313.255050746986	1022.142448687073	1115.095934190830	903.540762705445	1215.536447168183	950.965308892453	955.019582327567	
2	26.771071428571	858.714056747170	998.019300064673	582.947215430076	1060.138982298646	1415.187883176712	399.638645746407	1148.851397731448	1350.916501465080	569.361322811610	1058.545075132481	1435.692124068170	733.845981761721	1032.237194456064	1485.519214792218	553.278184703955	1083.137617326942	932.194217597536	710.080827513999	1082.105033489444	956.931639676999	435.044121764127	1140.074254204396	738.251173177690	669.797397624288	1066.278690793889	619.532526878441	720.461810560673	1148.830231386064	576.627371041601	639.237340421768	1155.732647033968	482.899340712644	642.146542692068	1153.723321108618	764.085356335568	458.862271533697	1096.512821352020	634.670444549048	370.024476404875	1199.525381712193	571.685940822948	438.825191184368	1205.674914922197	481.908962304088	426.522862345985	1135.593464783525	420.552274424354	410.557890207418	996.131504654685	389.001913540354	348.541973453928	972.911731355913	257.726120090739	394.633846092174	1115.315345360563	394.320029601556	642.719606398111	1032.866558537557	295.647369545086	700.698858594496	1062.319242587862	200.894110110399	631.028431215778	912.273501722467	44.262466606061	596.471206150653	1085.502105483534	97.223599331980	631.860049952149	996.516570951410	37.669840443729	670.344101067703	1204.826143187725	43.897404858851	657.158592161656	776.010954482931	196.180738250419	414.137167387920	839.130669417677	157.546012801975	334.399839983467	942.898373735487	162.629061580058	363.368544336190	1022.469836479805	53.206594718400	330.176000241384	1033.504535939028	1055.490904425993	303.161110421599	1083.411144921672	802.604194462189	309.778942608109	1040.019342710492	1109.722457000168	903.095328898180	1238.014423922777	950.402184600698	952.865606534933	
3	26.792142857143	857.686606581655	993.994414809068	587.067428475298	1056.470471232593	1410.949126545384	400.366886151987	1148.295629549284	1346.599201221554	568.368693771829	1061.816375347170	1431.662236337172	734.682490535488	1031.887405572086	1481.727198774570	554.100237294556	1084.453776802587	928.860542108407	711.329075223377	1078.703870484090	953.335521213636	436.607099306726	1143.270399113946	736.198965521641	669.386653917646	1071.865718138726	616.247403105850	720.392519163947	1153.690773573016	574.534107466342	637.773342403781	1161.227573329836	479.930036808211	640.256415504302	1154.827676362878	764.466748777850	460.240827098698	1101.276712724447	634.337884400488	371.338863358422	1205.869893305964	573.696830000856	440.333730643172	1214.461192044106	484.144895729009	427.482557892201	1145.814824268289	421.392513184193	410.712150590146	1006.412423403599	386.787493235782	350.030372911274	987.773310696004	254.160970477864	394.207801460145	1118.850811910359	391.337696804699	641.223426056672	1034.934087008584	294.204541742939	699.929912653167	1061.202071651646	199.175892767630	630.066977478518	907.975679011402	44.389486619216	596.496683282115	1081.227819381462	97.075539572641	631.611105455288	992.205783468194	37.712600718828	670.328546170156	1200.562352158499	43.488475783827	657.193855505605	793.365225150227	186.258097136255	415.536579255773	856.140504625480	151.186290485647	334.093618576806	960.020290094644	158.938032050040	361.757370545633	1042.232757091102	52.907549556569	325.060247687440	1012.967127910264	1053.905007844327	303.297735005262	1044.771468752929	799.514414279308	306.543163653194	1058.410829616301	1104.380442755275	902.408023212946	1261.390453466401	950.371734766258	950.099526266451	
4	26.813214285714	856.711972626980	990.101999212181	591.314823105647	1052.626008861955	1406.976775921630	401.099831119763	1147.694302646315	1342.433428342843	567.210751911492	1065.193744238762	1427.669783114603	735.407799142963	1031.498332354370	1478.074558928861	554.930029254450	1085.892386391550	925.657085121446	712.198619328778	1075.119946789775	949.807729769978	437.831755294061	1146.241020505765	734.109724430993	668.597259356484	1077.189000940507	613.067074681098	720.094094606074	1158.089049978041	572.451542149220	635.961497868752	1166.182458043702	477.032468528906	638.022079861229	1155.553594735635	764.825239201112	461.272245548350	1105.354198959602	633.927405870064	372.489153977143	1211.484078889137	575.609769572059	441.583681283834	1222.507299605858	486.439646347679	428.267519315741	1155.608254459587	422.248908416472	410.732178613796	1016.664395166138	383.854428223725	351.276097933801	1003.290042948298	250.003940877134	393.621267378057	1121.963779919281	388.436532755255	639.484214232270	1036.743682215449	292.770172863695	698.996000979249	1059.918679763907	197.481756060425	628.992966397441	903.626263147178	44.499311355469	596.527731181022	1076.866703975820	96.894561131630	631.299446343933	987.838895276760	37.752302887554	670.320644491546	1196.239347425493	43.080620069380	657.223393141080	812.015279453942	174.848000014160	416.631292505809	874.554064736571	143.606327216896	333.590596818575	978.320944889219	154.607257858777	360.047489284094	1063.605116455930	52.530832282967	320.052114662425	992.474067143315	1053.010951099029	303.425415712609	1007.192204656945	797.451404723005	303.804473699964	1076.892454615678	1099.372875979470	901.372413210138	1285.215375019436	951.287156169577	946.467681686031	
